<svg xmlns="http://www.w3.org/2000/svg" width="1024" height="1024" viewBox="0 0 1024 1024"><rect width="1024" height="1024" fill="#0B0A09"/><line x1="110" y1="880" x2="914" y2="880" stroke="#2B2723" stroke-width="5" stroke-linecap="round"/><g transform="translate(13.5,0)"><polygon points="694.3,578.4 657.9,724.0 682.9,731.0 727.0,587.6" fill="#8F887B" /><circle cx="710.7" cy="583.0" r="17" fill="#8F887B" /><circle cx="670.4" cy="727.5" r="13" fill="#8F887B" /><polygon points="657.9,724.1 622.4,865.4 641.6,870.6 682.9,730.9" fill="#8F887B" /><circle cx="670.4" cy="727.5" r="13" fill="#8F887B" /><circle cx="632.0" cy="868.0" r="10" fill="#8F887B" /><polygon points="632.0,878.0 654.0,877.0 654.0,859.0 632.0,858.0" fill="#8F887B" /><circle cx="632.0" cy="868.0" r="10" fill="#8F887B" /><circle cx="654.0" cy="868.0" r="9" fill="#8F887B" /><polygon points="510.4,712.2 360.9,843.5 387.1,876.5 549.0,760.8" fill="#8F887B" /><circle cx="529.7" cy="736.5" r="31" fill="#8F887B" /><circle cx="374.0" cy="860.0" r="21" fill="#8F887B" /><polygon points="373.7,840.0 187.8,851.0 188.2,875.0 374.3,880.0" fill="#8F887B" /><circle cx="374.0" cy="860.0" r="20" fill="#8F887B" /><circle cx="188.0" cy="863.0" r="12" fill="#8F887B" /><polygon points="201.0,877.0 175.0,873.0 136.0,857.0 124.0,849.0 122.0,842.0 209.0,842.0 212.0,857.0" fill="#8F887B" stroke="#8F887B" stroke-width="6" stroke-linejoin="round"/><path d="M 505.9,720.0 L 521.6,698.3 L 562.6,674.3 L 617.5,630.0 L 668.6,581.1 L 706.0,563.8 L 727.8,579.6 L 735.0,607.2 L 710.8,644.7 L 671.7,671.1 L 629.5,693.6 L 590.5,727.6 L 554.5,757.8 L 526.1,752.5 Z" fill="#EDE6D6" stroke="#EDE6D6" stroke-width="10" stroke-linejoin="round"/><polygon points="721.1,604.3 753.2,580.3 737.0,557.5 703.8,579.8" fill="#EDE6D6" /><circle cx="712.4" cy="592.0" r="15" fill="#EDE6D6" /><circle cx="745.1" cy="568.9" r="14" fill="#EDE6D6" /><circle cx="771.2" cy="550.4" r="38" fill="#EDE6D6"/><circle cx="768.8" cy="573.0" r="21" fill="#EDE6D6"/><polygon points="677.2,662.8 718.6,624.3 704.8,607.2 658.3,639.5" fill="#B3121B" opacity="0.95"/><circle cx="667.8" cy="651.2" r="15" fill="#B3121B" opacity="0.95"/><circle cx="711.7" cy="615.8" r="11" fill="#B3121B" opacity="0.95"/><polygon points="516.3,710.3 366.8,843.7 393.2,876.3 555.2,758.6" fill="#EDE6D6" /><circle cx="535.7" cy="734.5" r="31" fill="#EDE6D6" /><circle cx="380.0" cy="860.0" r="21" fill="#EDE6D6" /><polygon points="379.7,840.0 193.8,851.0 194.2,875.0 380.3,880.0" fill="#EDE6D6" /><circle cx="380.0" cy="860.0" r="20" fill="#EDE6D6" /><circle cx="194.0" cy="863.0" r="12" fill="#EDE6D6" /><polygon points="207.0,877.0 181.0,873.0 142.0,857.0 130.0,849.0 128.0,842.0 215.0,842.0 218.0,857.0" fill="#EDE6D6" stroke="#EDE6D6" stroke-width="6" stroke-linejoin="round"/><polygon points="702.3,582.4 665.4,727.8 690.4,734.9 735.0,591.6" fill="#EDE6D6" /><circle cx="718.7" cy="587.0" r="17" fill="#EDE6D6" /><circle cx="677.9" cy="731.3" r="13" fill="#EDE6D6" /><polygon points="665.3,727.9 630.4,865.3 649.6,870.7 690.4,734.8" fill="#EDE6D6" /><circle cx="677.9" cy="731.3" r="13" fill="#EDE6D6" /><circle cx="640.0" cy="868.0" r="10" fill="#EDE6D6" /><polygon points="640.0,878.0 662.0,877.0 662.0,859.0 640.0,858.0" fill="#EDE6D6" /><circle cx="640.0" cy="868.0" r="10" fill="#EDE6D6" /><circle cx="662.0" cy="868.0" r="9" fill="#EDE6D6" /><polygon points="703.1,605.5 675.1,711.8 690.5,716.2 722.3,610.9" fill="#B3121B" opacity="0.95"/><circle cx="712.7" cy="608.2" r="10" fill="#B3121B" opacity="0.95"/><circle cx="682.8" cy="714.0" r="8" fill="#B3121B" opacity="0.95"/><path d="M 836.8,566.3 Q 847.6,632.2 878.8,674.8" fill="none" stroke="#B3121B" stroke-width="7" stroke-linecap="round" stroke-dasharray="2 16"/><polygon points="893.0,694.2 862.0,677.3 886.2,659.5" fill="#B3121B"/></g><rect x="894" y="914" width="20" height="30" rx="9" fill="#C9A227"/><ellipse cx="891" cy="934" rx="5" ry="9" fill="#C9A227"/><rect x="938" y="914" width="20" height="30" rx="9" fill="#C9A227"/><ellipse cx="961" cy="934" rx="5" ry="9" fill="#C9A227"/><circle cx="913" cy="988" r="12" fill="#C9A227"/><circle cx="939" cy="988" r="12" fill="#C9A227"/></svg>