<svg xmlns="http://www.w3.org/2000/svg" width="1024" height="1024" viewBox="0 0 1024 1024"><rect width="1024" height="1024" fill="#0B0A09"/><line x1="110" y1="880" x2="914" y2="880" stroke="#2B2723" stroke-width="5" stroke-linecap="round"/><g transform="translate(-284.5,0)"><rect x="700" y="550" width="180" height="330" rx="6" fill="#1A1712" stroke="#C9A227" stroke-width="6"/><polygon points="1019.0,467.3 872.2,498.3 876.9,523.9 1025.2,500.7" fill="#8F887B" /><circle cx="1022.1" cy="484.0" r="17" fill="#8F887B" /><circle cx="874.6" cy="511.1" r="13" fill="#8F887B" /><polygon points="872.1,498.3 730.1,528.2 733.9,547.8 877.0,523.9" fill="#8F887B" /><circle cx="874.6" cy="511.1" r="13" fill="#8F887B" /><circle cx="732.0" cy="538.0" r="10" fill="#8F887B" /><polygon points="732.0,548.0 754.0,547.0 754.0,529.0 732.0,528.0" fill="#8F887B" /><circle cx="732.0" cy="538.0" r="10" fill="#8F887B" /><circle cx="754.0" cy="538.0" r="9" fill="#8F887B" /><polygon points="810.7,598.0 659.9,729.7 685.9,762.7 849.1,646.7" fill="#8F887B" /><circle cx="829.9" cy="622.4" r="31" fill="#8F887B" /><circle cx="672.9" cy="746.2" r="21" fill="#8F887B" /><polygon points="663.0,728.8 501.7,829.6 513.6,850.4 682.8,763.6" fill="#8F887B" /><circle cx="672.9" cy="746.2" r="20" fill="#8F887B" /><circle cx="507.6" cy="840.0" r="12" fill="#8F887B" /><polygon points="500.2,822.4 523.3,835.0 554.5,863.4 563.0,875.0 562.5,882.3 480.7,852.6 483.0,837.4" fill="#8F887B" stroke="#8F887B" stroke-width="6" stroke-linejoin="round"/><path d="M 807.4,603.5 L 824.8,583.2 L 867.6,562.5 L 925.8,522.8 L 980.7,478.1 L 1019.3,463.9 L 1039.8,481.4 L 1044.7,509.5 L 1017.7,544.9 L 976.6,568.0 L 932.7,587.1 L 891.1,617.8 L 852.8,645.1 L 824.9,637.6 Z" fill="#EDE6D6" stroke="#EDE6D6" stroke-width="10" stroke-linejoin="round"/><polygon points="1031.1,505.4 1065.0,484.1 1050.7,460.0 1015.8,479.6" fill="#EDE6D6" /><circle cx="1023.5" cy="492.5" r="15" fill="#EDE6D6" /><circle cx="1057.9" cy="472.1" r="14" fill="#EDE6D6" /><circle cx="1085.4" cy="455.7" r="38" fill="#EDE6D6"/><circle cx="1081.2" cy="478.0" r="21" fill="#EDE6D6"/><polygon points="982.7,560.3 1027.0,525.2 1014.6,507.0 965.8,535.5" fill="#B3121B" opacity="0.95"/><circle cx="974.2" cy="547.9" r="15" fill="#B3121B" opacity="0.95"/><circle cx="1020.8" cy="516.1" r="11" fill="#B3121B" opacity="0.95"/><polygon points="818.4,594.8 659.0,716.0 682.8,750.7 853.4,645.9" fill="#EDE6D6" /><circle cx="835.9" cy="620.4" r="31" fill="#EDE6D6" /><circle cx="670.9" cy="733.4" r="21" fill="#EDE6D6" /><polygon points="659.7,716.8 506.9,830.1 520.4,849.9 682.1,749.9" fill="#EDE6D6" /><circle cx="670.9" cy="733.4" r="20" fill="#EDE6D6" /><circle cx="513.6" cy="840.0" r="12" fill="#EDE6D6" /><polygon points="506.2,822.4 529.3,835.0 560.5,863.4 569.0,875.0 568.5,882.3 486.7,852.6 489.0,837.4" fill="#EDE6D6" stroke="#EDE6D6" stroke-width="6" stroke-linejoin="round"/><polygon points="1027.2,471.2 880.0,500.3 884.4,525.9 1032.9,504.8" fill="#EDE6D6" /><circle cx="1030.1" cy="488.0" r="17" fill="#EDE6D6" /><circle cx="882.2" cy="513.1" r="13" fill="#EDE6D6" /><polygon points="880.0,500.3 738.3,528.1 741.7,547.9 884.5,525.9" fill="#EDE6D6" /><circle cx="882.2" cy="513.1" r="13" fill="#EDE6D6" /><circle cx="740.0" cy="538.0" r="10" fill="#EDE6D6" /><polygon points="740.0,548.0 762.0,547.0 762.0,529.0 740.0,528.0" fill="#EDE6D6" /><circle cx="740.0" cy="538.0" r="10" fill="#EDE6D6" /><circle cx="762.0" cy="538.0" r="9" fill="#EDE6D6" /><polygon points="1006.7,481.8 898.6,502.2 901.3,518.0 1010.1,501.5" fill="#B3121B" opacity="0.95"/><circle cx="1008.4" cy="491.7" r="10" fill="#B3121B" opacity="0.95"/><circle cx="900.0" cy="510.1" r="8" fill="#B3121B" opacity="0.95"/><path d="M 1088.6,388.3 Q 1047.9,335.2 1000.2,312.4" fill="none" stroke="#B3121B" stroke-width="7" stroke-linecap="round" stroke-dasharray="2 16"/><polygon points="978.6,302.1 1013.9,302.3 1001.0,329.4" fill="#B3121B"/></g><rect x="894" y="914" width="20" height="30" rx="9" fill="#C9A227"/><ellipse cx="891" cy="934" rx="5" ry="9" fill="#C9A227"/><rect x="938" y="914" width="20" height="30" rx="9" fill="#C9A227"/><ellipse cx="961" cy="934" rx="5" ry="9" fill="#C9A227"/><ellipse cx="915" cy="980" rx="12" ry="19" fill="#C9A227"/><ellipse cx="915" cy="1007" rx="9" ry="9" fill="#C9A227"/><ellipse cx="937" cy="980" rx="12" ry="19" fill="#C9A227"/><ellipse cx="937" cy="1007" rx="9" ry="9" fill="#C9A227"/></svg>