<svg xmlns="http://www.w3.org/2000/svg" width="1024" height="1024" viewBox="0 0 1024 1024"><rect width="1024" height="1024" fill="#0B0A09"/><g transform="matrix(0.86,0,0,0.86,71.7,0.0)"><g transform="translate(-30.0,0)"><line x1="560" y1="120" x2="560" y2="0" stroke="#C9A227" stroke-width="5" opacity="0.55"/><circle cx="560" cy="120" r="13" fill="#1A1712" stroke="#C9A227" stroke-width="6"/><polygon points="547.9,418.8 631.3,294.1 610.0,279.1 520.1,399.2" fill="#8F887B" /><circle cx="534.0" cy="409.0" r="17" fill="#8F887B" /><circle cx="620.7" cy="286.6" r="13" fill="#8F887B" /><polygon points="632.5,281.2 573.9,159.5 555.7,167.8 608.8,291.9" fill="#8F887B" /><circle cx="620.7" cy="286.6" r="13" fill="#8F887B" /><circle cx="564.8" cy="163.7" r="10" fill="#8F887B" /><polygon points="574.8,163.7 573.8,141.7 555.8,141.7 554.8,163.7" fill="#8F887B" /><circle cx="564.8" cy="163.7" r="10" fill="#8F887B" /><circle cx="564.8" cy="141.7" r="9" fill="#8F887B" /><polygon points="488.9,647.7 526.6,844.4 568.2,838.6 550.3,639.1" fill="#8F887B" /><circle cx="519.6" cy="643.4" r="31" fill="#8F887B" /><circle cx="547.4" cy="841.5" r="21" fill="#8F887B" /><polygon points="527.4,841.5 535.4,1031.5 559.4,1031.5 567.4,841.5" fill="#8F887B" /><circle cx="547.4" cy="841.5" r="20" fill="#8F887B" /><circle cx="547.4" cy="1031.5" r="12" fill="#8F887B" /><polygon points="556.7,1014.8 561.0,1040.8 557.8,1082.8 553.9,1096.7 547.9,1100.7 521.0,1018.0 534.3,1010.5" fill="#8F887B" stroke="#8F887B" stroke-width="6" stroke-linejoin="round"/><path d="M 494.7,655.4 L 489.5,629.1 L 499.8,582.7 L 504.7,512.4 L 503.6,441.7 L 516.4,402.5 L 542.8,397.3 L 567.9,410.8 L 579.0,454.0 L 571.7,500.6 L 559.4,546.9 L 557.8,598.6 L 555.5,645.5 L 532.3,662.7 Z" fill="#EDE6D6" stroke="#EDE6D6" stroke-width="10" stroke-linejoin="round"/><polygon points="556.4,418.0 558.2,378.1 530.3,376.1 526.5,415.9" fill="#EDE6D6" /><circle cx="541.4" cy="417.0" r="15" fill="#EDE6D6" /><circle cx="544.2" cy="377.1" r="14" fill="#EDE6D6" /><circle cx="546.5" cy="345.2" r="38" fill="#EDE6D6"/><circle cx="562.4" cy="361.3" r="21" fill="#EDE6D6"/><polygon points="528.8,525.9 530.7,441.2 508.8,439.7 498.9,523.8" fill="#B3121B" opacity="0.95"/><circle cx="513.9" cy="524.8" r="15" fill="#B3121B" opacity="0.95"/><circle cx="519.8" cy="440.4" r="11" fill="#B3121B" opacity="0.95"/><polygon points="494.9,647.7 532.6,844.4 574.2,838.6 556.3,639.1" fill="#EDE6D6" /><circle cx="525.6" cy="643.4" r="31" fill="#EDE6D6" /><circle cx="553.4" cy="841.5" r="21" fill="#EDE6D6" /><polygon points="533.4,841.5 541.4,1031.5 565.4,1031.5 573.4,841.5" fill="#EDE6D6" /><circle cx="553.4" cy="841.5" r="20" fill="#EDE6D6" /><circle cx="553.4" cy="1031.5" r="12" fill="#EDE6D6" /><polygon points="562.7,1014.8 567.0,1040.8 563.8,1082.8 559.9,1096.7 553.9,1100.7 527.0,1018.0 540.3,1010.5" fill="#EDE6D6" stroke="#EDE6D6" stroke-width="6" stroke-linejoin="round"/><polygon points="558.5,413.2 591.7,266.9 566.5,260.4 525.5,404.8" fill="#EDE6D6" /><circle cx="542.0" cy="409.0" r="17" fill="#EDE6D6" /><circle cx="579.1" cy="263.6" r="13" fill="#EDE6D6" /><polygon points="591.9,261.8 569.9,128.6 550.1,131.4 566.2,265.5" fill="#EDE6D6" /><circle cx="579.1" cy="263.6" r="13" fill="#EDE6D6" /><circle cx="560.0" cy="130.0" r="10" fill="#EDE6D6" /><polygon points="570.0,130.0 569.0,108.0 551.0,108.0 550.0,130.0" fill="#EDE6D6" /><circle cx="560.0" cy="130.0" r="10" fill="#EDE6D6" /><circle cx="560.0" cy="108.0" r="9" fill="#EDE6D6" /><polygon points="557.1,390.2 582.4,283.1 566.9,279.1 537.7,385.2" fill="#B3121B" opacity="0.95"/><circle cx="547.4" cy="387.7" r="10" fill="#B3121B" opacity="0.95"/><circle cx="574.6" cy="281.1" r="8" fill="#B3121B" opacity="0.95"/><circle cx="560" cy="120" r="13" fill="#1A1712" stroke="#C9A227" stroke-width="6"/><path d="M 481.2,379.7 Q 484.5,313.0 462.9,264.7" fill="none" stroke="#B3121B" stroke-width="7" stroke-linecap="round" stroke-dasharray="2 16"/><polygon points="453.1,242.8 479.8,265.9 452.5,278.2" fill="#B3121B"/></g></g><rect x="898" y="934" width="20" height="30" rx="9" fill="#C9A227"/><ellipse cx="895" cy="954" rx="5" ry="9" fill="#C9A227"/><rect x="942" y="934" width="20" height="30" rx="9" fill="none" stroke="#C9A227" stroke-width="4"/><ellipse cx="965" cy="954" rx="5" ry="9" fill="none" stroke="#C9A227" stroke-width="4"/></svg>