<svg xmlns="http://www.w3.org/2000/svg" width="1024" height="1024" viewBox="0 0 1024 1024"><rect width="1024" height="1024" fill="#0B0A09"/><line x1="110" y1="880" x2="914" y2="880" stroke="#2B2723" stroke-width="5" stroke-linecap="round"/><g transform="translate(-108.4,0)"><polygon points="518.3,560.7 667.6,546.2 665.8,520.3 515.9,526.7" fill="#8F887B" /><circle cx="517.1" cy="543.7" r="17" fill="#8F887B" /><circle cx="666.7" cy="533.2" r="13" fill="#8F887B" /><polygon points="668.1,546.2 802.0,529.1 799.9,509.2 665.4,520.3" fill="#8F887B" /><circle cx="666.7" cy="533.2" r="13" fill="#8F887B" /><circle cx="801.0" cy="519.1" r="10" fill="#8F887B" /><polygon points="802.0,529.1 823.8,525.8 821.9,507.9 799.9,509.2" fill="#8F887B" /><circle cx="801.0" cy="519.1" r="10" fill="#8F887B" /><circle cx="822.9" cy="516.8" r="9" fill="#8F887B" /><polygon points="438.0,788.7 631.5,737.3 622.8,696.3 425.1,728.1" fill="#8F887B" /><circle cx="431.5" cy="758.4" r="31" fill="#8F887B" /><circle cx="627.1" cy="716.8" r="21" fill="#8F887B" /><polygon points="612.3,703.4 491.1,850.0 508.9,866.0 642.0,730.2" fill="#8F887B" /><circle cx="627.1" cy="716.8" r="20" fill="#8F887B" /><circle cx="500.0" cy="858.0" r="12" fill="#8F887B" /><polygon points="487.0,844.0 513.0,848.0 552.0,864.0 564.0,872.0 566.0,879.0 479.0,879.0 476.0,864.0" fill="#8F887B" stroke="#8F887B" stroke-width="6" stroke-linejoin="round"/><path d="M 398.4,759.1 L 402.5,732.6 L 428.0,692.5 L 456.7,628.1 L 479.9,561.3 L 505.2,528.8 L 531.9,533.0 L 550.8,554.3 L 546.4,598.6 L 523.7,639.9 L 496.3,679.2 L 477.1,727.2 L 458.9,770.6 L 431.2,778.8 Z" fill="#EDE6D6" stroke="#EDE6D6" stroke-width="10" stroke-linejoin="round"/><polygon points="536.4,559.2 557.3,525.0 533.8,509.8 511.2,542.9" fill="#EDE6D6" /><circle cx="523.8" cy="551.0" r="15" fill="#EDE6D6" /><circle cx="545.6" cy="517.4" r="14" fill="#EDE6D6" /><circle cx="562.9" cy="490.6" r="38" fill="#EDE6D6"/><circle cx="569.0" cy="512.5" r="21" fill="#EDE6D6"/><polygon points="438.0,788.7 631.5,737.3 622.8,696.3 425.1,728.1" fill="#EDE6D6" /><circle cx="431.5" cy="758.4" r="31" fill="#EDE6D6" /><circle cx="627.1" cy="716.8" r="21" fill="#EDE6D6" /><polygon points="612.3,703.4 491.1,850.0 508.9,866.0 642.0,730.2" fill="#EDE6D6" /><circle cx="627.1" cy="716.8" r="20" fill="#EDE6D6" /><circle cx="500.0" cy="858.0" r="12" fill="#EDE6D6" /><polygon points="487.0,844.0 513.0,848.0 552.0,864.0 564.0,872.0 566.0,879.0 479.0,879.0 476.0,864.0" fill="#EDE6D6" stroke="#EDE6D6" stroke-width="6" stroke-linejoin="round"/><polygon points="457.9,758.9 606.3,725.3 602.5,705.7 452.2,729.4" fill="#B3121B" opacity="0.95"/><circle cx="455.1" cy="744.2" r="15" fill="#B3121B" opacity="0.95"/><circle cx="604.4" cy="715.5" r="10" fill="#B3121B" opacity="0.95"/><polygon points="529.5,560.5 677.4,535.7 673.8,510.0 524.7,526.9" fill="#EDE6D6" /><circle cx="527.1" cy="543.7" r="17" fill="#EDE6D6" /><circle cx="675.6" cy="522.8" r="13" fill="#EDE6D6" /><polygon points="677.4,535.7 810.7,513.9 807.9,494.1 673.8,510.0" fill="#EDE6D6" /><circle cx="675.6" cy="522.8" r="13" fill="#EDE6D6" /><circle cx="809.3" cy="504.0" r="10" fill="#EDE6D6" /><polygon points="810.7,513.9 832.4,509.9 829.8,492.1 807.9,494.1" fill="#EDE6D6" /><circle cx="809.3" cy="504.0" r="10" fill="#EDE6D6" /><circle cx="831.1" cy="501.0" r="9" fill="#EDE6D6" /><path d="M 387.1,707.5 Q 416.5,647.5 415.6,594.6" fill="none" stroke="#B3121B" stroke-width="7" stroke-linecap="round" stroke-dasharray="2 16"/><polygon points="415.2,570.6 430.7,602.4 400.7,602.9" fill="#B3121B"/></g><ellipse cx="917" cy="942" rx="12" ry="19" fill="#C9A227"/><ellipse cx="917" cy="969" rx="9" ry="9" fill="#C9A227"/><ellipse cx="943" cy="942" rx="12" ry="19" fill="#C9A227"/><ellipse cx="943" cy="969" rx="9" ry="9" fill="#C9A227"/></svg>