<svg xmlns="http://www.w3.org/2000/svg" width="1024" height="1024" viewBox="0 0 1024 1024"><rect width="1024" height="1024" fill="#0B0A09"/><line x1="110" y1="880" x2="914" y2="880" stroke="#2B2723" stroke-width="5" stroke-linecap="round"/><g transform="translate(51.8,0)"><circle cx="520" cy="828" r="52" fill="#1A1712" stroke="#C9A227" stroke-width="6"/><path d="M 474,828 Q 520,808 566,828" fill="none" stroke="#C9A227" stroke-width="3" opacity="0.7"/><path d="M 520,782 Q 500,828 520,874" fill="none" stroke="#C9A227" stroke-width="3" opacity="0.7"/><polygon points="370.1,609.7 310.4,744.5 333.9,755.6 400.8,624.3" fill="#8F887B" /><circle cx="385.4" cy="617.0" r="17" fill="#8F887B" /><circle cx="322.1" cy="750.0" r="13" fill="#8F887B" /><polygon points="310.4,744.5 257.0,863.7 275.0,872.3 333.9,755.6" fill="#8F887B" /><circle cx="322.1" cy="750.0" r="13" fill="#8F887B" /><circle cx="266.0" cy="868.0" r="10" fill="#8F887B" /><polygon points="266.0,878.0 288.0,877.0 288.0,859.0 266.0,858.0" fill="#8F887B" /><circle cx="266.0" cy="868.0" r="10" fill="#8F887B" /><circle cx="288.0" cy="868.0" r="9" fill="#8F887B" /><polygon points="562.8,535.8 698.0,683.5 730.3,656.7 610.5,496.3" fill="#8F887B" /><circle cx="586.6" cy="516.0" r="31" fill="#8F887B" /><circle cx="714.2" cy="670.1" r="21" fill="#8F887B" /><polygon points="694.4,667.1 674.1,856.2 697.9,859.8 733.9,673.1" fill="#8F887B" /><circle cx="714.2" cy="670.1" r="20" fill="#8F887B" /><circle cx="686.0" cy="858.0" r="12" fill="#8F887B" /><polygon points="673.0,844.0 699.0,848.0 738.0,864.0 750.0,872.0 752.0,879.0 665.0,879.0 662.0,864.0" fill="#8F887B" stroke="#8F887B" stroke-width="6" stroke-linejoin="round"/><path d="M 622.9,545.9 L 595.0,547.6 L 539.8,541.8 L 472.3,564.0 L 419.9,617.6 L 390.0,647.4 L 374.6,631.7 L 370.0,595.7 L 391.6,543.3 L 429.4,513.6 L 475.0,500.0 L 526.5,487.5 L 579.5,489.1 L 612.1,513.0 Z" fill="#EDE6D6" stroke="#EDE6D6" stroke-width="10" stroke-linejoin="round"/><polygon points="376.4,606.8 354.0,640.0 376.8,656.2 400.8,624.2" fill="#EDE6D6" /><circle cx="388.6" cy="615.5" r="15" fill="#EDE6D6" /><circle cx="365.4" cy="648.1" r="14" fill="#EDE6D6" /><circle cx="347.5" cy="673.3" r="38" fill="#EDE6D6"/><circle cx="342.4" cy="651.2" r="21" fill="#EDE6D6"/><polygon points="584.9,519.5 452.3,555.1 457.3,576.5 591.9,548.7" fill="#B3121B" opacity="0.95"/><circle cx="588.4" cy="534.1" r="15" fill="#B3121B" opacity="0.95"/><circle cx="454.8" cy="565.8" r="11" fill="#B3121B" opacity="0.95"/><polygon points="568.9,535.9 705.2,682.7 737.3,655.7 616.4,496.1" fill="#EDE6D6" /><circle cx="592.6" cy="516.0" r="31" fill="#EDE6D6" /><circle cx="721.2" cy="669.2" r="21" fill="#EDE6D6" /><polygon points="701.4,667.0 688.1,856.7 711.9,859.3 741.1,671.4" fill="#EDE6D6" /><circle cx="721.2" cy="669.2" r="20" fill="#EDE6D6" /><circle cx="700.0" cy="858.0" r="12" fill="#EDE6D6" /><polygon points="687.0,844.0 713.0,848.0 752.0,864.0 764.0,872.0 766.0,879.0 679.0,879.0 676.0,864.0" fill="#EDE6D6" stroke="#EDE6D6" stroke-width="6" stroke-linejoin="round"/><polygon points="366.1,611.6 305.4,745.3 328.8,756.7 396.7,626.5" fill="#EDE6D6" /><circle cx="381.4" cy="619.0" r="17" fill="#EDE6D6" /><circle cx="317.1" cy="751.0" r="13" fill="#EDE6D6" /><polygon points="305.4,745.3 251.0,863.6 269.0,872.4 328.8,756.7" fill="#EDE6D6" /><circle cx="317.1" cy="751.0" r="13" fill="#EDE6D6" /><circle cx="260.0" cy="868.0" r="10" fill="#EDE6D6" /><polygon points="260.0,878.0 282.0,877.0 282.0,859.0 260.0,858.0" fill="#EDE6D6" /><circle cx="260.0" cy="868.0" r="10" fill="#EDE6D6" /><circle cx="282.0" cy="868.0" r="9" fill="#EDE6D6" /><polygon points="591.2,551.6 695.0,662.8 710.0,649.6 613.8,531.8" fill="#B3121B" opacity="0.95"/><circle cx="602.5" cy="541.7" r="15" fill="#B3121B" opacity="0.95"/><circle cx="702.5" cy="656.2" r="10" fill="#B3121B" opacity="0.95"/><path d="M 529.6,540.3 Q 497.5,598.9 495.9,651.7" fill="none" stroke="#B3121B" stroke-width="7" stroke-linecap="round" stroke-dasharray="2 16"/><polygon points="495.2,675.7 481.2,643.3 511.1,644.2" fill="#B3121B"/></g></svg>