<svg xmlns="http://www.w3.org/2000/svg" width="1024" height="1024" viewBox="0 0 1024 1024"><rect width="1024" height="1024" fill="#0B0A09"/><g transform="matrix(0.8,0,0,0.8,102.4,176.0)"><line x1="110" y1="880" x2="914" y2="880" stroke="#2B2723" stroke-width="5" stroke-linecap="round"/><g transform="translate(-35.0,0)"><rect x="700" y="-300" width="344" height="1180" fill="#1A1712"/><line x1="700" y1="-300" x2="700" y2="880" stroke="#C9A227" stroke-width="6" stroke-linecap="round"/><polygon points="598.9,759.7 454.0,720.7 446.5,745.6 589.1,792.3" fill="#8F887B" /><circle cx="594.0" cy="776.0" r="17" fill="#8F887B" /><circle cx="450.3" cy="733.1" r="13" fill="#8F887B" /><polygon points="437.3,732.5 434.0,867.5 454.0,868.5 463.2,733.7" fill="#8F887B" /><circle cx="450.3" cy="733.1" r="13" fill="#8F887B" /><circle cx="444.0" cy="868.0" r="10" fill="#8F887B" /><polygon points="444.0,878.0 466.0,877.0 466.0,859.0 444.0,858.0" fill="#8F887B" /><circle cx="444.0" cy="868.0" r="10" fill="#8F887B" /><circle cx="466.0" cy="868.0" r="9" fill="#8F887B" /><polygon points="654.8,542.1 641.0,342.3 599.0,343.1 592.8,543.3" fill="#8F887B" /><circle cx="623.8" cy="542.7" r="31" fill="#8F887B" /><circle cx="620.0" cy="342.7" r="21" fill="#8F887B" /><polygon points="639.3,348.0 681.6,162.6 658.4,156.2 600.7,337.4" fill="#8F887B" /><circle cx="620.0" cy="342.7" r="20" fill="#8F887B" /><circle cx="670.0" cy="159.4" r="12" fill="#8F887B" /><polygon points="656.9,173.3 659.1,147.1 672.4,107.1 679.5,94.6 686.3,92.1 692.4,178.9 677.7,182.9" fill="#8F887B" stroke="#8F887B" stroke-width="6" stroke-linejoin="round"/><path d="M 661.3,532.2 L 665.2,558.7 L 652.7,604.5 L 644.3,674.5 L 641.9,745.3 L 627.3,783.7 L 600.6,787.7 L 576.2,772.9 L 567.3,729.3 L 576.8,683.1 L 591.3,637.5 L 595.5,585.9 L 600.0,539.1 L 624.1,523.0 Z" fill="#EDE6D6" stroke="#EDE6D6" stroke-width="10" stroke-linejoin="round"/><polygon points="588.0,769.5 592.9,809.2 620.8,806.5 617.9,766.6" fill="#EDE6D6" /><circle cx="602.9" cy="768.1" r="15" fill="#EDE6D6" /><circle cx="606.8" cy="807.9" r="14" fill="#EDE6D6" /><circle cx="610.0" cy="840.0" r="38" fill="#EDE6D6"/><circle cx="591.6" cy="826.7" r="21" fill="#EDE6D6"/><polygon points="594.0,741.9 592.5,779.6 618.3,782.7 625.8,745.7" fill="#B3121B" opacity="0.95"/><circle cx="609.9" cy="743.8" r="16" fill="#B3121B" opacity="0.95"/><circle cx="605.4" cy="781.1" r="13" fill="#B3121B" opacity="0.95"/><polygon points="660.6,546.3 673.9,346.4 632.2,341.6 599.0,539.1" fill="#EDE6D6" /><circle cx="629.8" cy="542.7" r="31" fill="#EDE6D6" /><circle cx="653.1" cy="344.0" r="21" fill="#EDE6D6" /><polygon points="672.9,346.4 687.9,156.8 664.1,153.9 633.2,341.6" fill="#EDE6D6" /><circle cx="653.1" cy="344.0" r="20" fill="#EDE6D6" /><circle cx="676.0" cy="155.4" r="12" fill="#EDE6D6" /><polygon points="662.9,169.3 665.1,143.1 678.4,103.1 685.5,90.6 692.3,88.1 698.4,174.9 683.7,178.9" fill="#EDE6D6" stroke="#EDE6D6" stroke-width="6" stroke-linejoin="round"/><polygon points="606.9,759.7 462.0,720.7 454.5,745.6 597.1,792.3" fill="#EDE6D6" /><circle cx="602.0" cy="776.0" r="17" fill="#EDE6D6" /><circle cx="458.3" cy="733.1" r="13" fill="#EDE6D6" /><polygon points="445.3,732.5 442.0,867.5 462.0,868.5 471.2,733.7" fill="#EDE6D6" /><circle cx="458.3" cy="733.1" r="13" fill="#EDE6D6" /><circle cx="452.0" cy="868.0" r="10" fill="#EDE6D6" /><polygon points="452.0,878.0 474.0,877.0 474.0,859.0 452.0,858.0" fill="#EDE6D6" /><circle cx="452.0" cy="868.0" r="10" fill="#EDE6D6" /><circle cx="474.0" cy="868.0" r="9" fill="#EDE6D6" /><polygon points="583.8,760.1 477.8,730.6 473.2,746.0 578.1,779.3" fill="#B3121B" opacity="0.95"/><circle cx="580.9" cy="769.7" r="10" fill="#B3121B" opacity="0.95"/><circle cx="475.5" cy="738.3" r="8" fill="#B3121B" opacity="0.95"/><path d="M 588.7,489.1 Q 591.8,489.8 581.3,492.5" fill="none" stroke="#B3121B" stroke-width="7" stroke-linecap="round" stroke-dasharray="2 16"/><polygon points="604.5,486.4 577.4,509.1 569.8,480.1" fill="#B3121B"/></g></g><rect x="898" y="948" width="20" height="30" rx="9" fill="#C9A227"/><ellipse cx="895" cy="968" rx="5" ry="9" fill="#C9A227"/><rect x="942" y="948" width="20" height="30" rx="9" fill="#C9A227"/><ellipse cx="965" cy="968" rx="5" ry="9" fill="#C9A227"/><circle cx="930" cy="920" r="13" fill="#C9A227"/></svg>