<svg xmlns="http://www.w3.org/2000/svg" width="1024" height="1024" viewBox="0 0 1024 1024"><rect width="1024" height="1024" fill="#0B0A09"/><line x1="110" y1="880" x2="914" y2="880" stroke="#2B2723" stroke-width="5" stroke-linecap="round"/><g transform="translate(102.6,0)"><polygon points="689.8,781.9 546.3,737.8 538.0,762.5 678.9,814.1" fill="#8F887B" /><circle cx="684.3" cy="798.0" r="17" fill="#8F887B" /><circle cx="542.2" cy="750.1" r="13" fill="#8F887B" /><polygon points="530.8,756.5 599.3,872.9 616.7,863.1 553.5,743.8" fill="#8F887B" /><circle cx="542.2" cy="750.1" r="13" fill="#8F887B" /><circle cx="608.0" cy="868.0" r="10" fill="#8F887B" /><polygon points="608.0,878.0 630.0,877.0 630.0,859.0 608.0,858.0" fill="#8F887B" /><circle cx="608.0" cy="868.0" r="10" fill="#8F887B" /><circle cx="630.0" cy="868.0" r="9" fill="#8F887B" /><polygon points="449.3,787.4 250.7,813.2 254.1,855.1 454.2,849.2" fill="#8F887B" /><circle cx="451.8" cy="818.3" r="31" fill="#8F887B" /><circle cx="252.4" cy="834.2" r="21" fill="#8F887B" /><polygon points="251.8,814.2 62.1,828.0 62.9,852.0 253.0,854.2" fill="#8F887B" /><circle cx="252.4" cy="834.2" r="20" fill="#8F887B" /><circle cx="62.5" cy="840.0" r="12" fill="#8F887B" /><polygon points="55.1,822.4 78.1,835.0 109.3,863.4 117.8,875.0 117.3,882.3 35.6,852.6 37.9,837.4" fill="#8F887B" stroke="#8F887B" stroke-width="6" stroke-linejoin="round"/><path d="M 441.9,787.2 L 467.3,778.6 L 514.6,782.8 L 585.0,778.5 L 655.0,768.2 L 695.5,775.8 L 704.1,801.3 L 693.9,828.0 L 652.6,844.5 L 605.4,843.4 L 557.9,837.2 L 506.5,842.4 L 459.6,846.2 L 439.5,825.4 Z" fill="#EDE6D6" stroke="#EDE6D6" stroke-width="10" stroke-linejoin="round"/><polygon points="684.3,817.5 724.3,816.5 724.4,788.5 684.4,787.5" fill="#EDE6D6" /><circle cx="684.4" cy="802.5" r="15" fill="#EDE6D6" /><circle cx="724.4" cy="802.5" r="14" fill="#EDE6D6" /><circle cx="756.3" cy="802.6" r="38" fill="#EDE6D6"/><circle cx="741.3" cy="819.6" r="21" fill="#EDE6D6"/><polygon points="614.6,839.8 670.6,832.4 669.3,810.4 612.8,809.9" fill="#B3121B" opacity="0.95"/><circle cx="613.7" cy="824.8" r="15" fill="#B3121B" opacity="0.95"/><circle cx="670.0" cy="821.4" r="11" fill="#B3121B" opacity="0.95"/><polygon points="455.8,785.3 256.8,807.9 259.5,849.8 459.7,847.2" fill="#EDE6D6" /><circle cx="457.8" cy="816.3" r="31" fill="#EDE6D6" /><circle cx="258.2" cy="828.9" r="21" fill="#EDE6D6" /><polygon points="257.0,808.9 67.8,828.0 69.2,852.0 259.3,848.9" fill="#EDE6D6" /><circle cx="258.2" cy="828.9" r="20" fill="#EDE6D6" /><circle cx="68.5" cy="840.0" r="12" fill="#EDE6D6" /><polygon points="61.1,822.4 84.1,835.0 115.3,863.4 123.8,875.0 123.3,882.3 41.6,852.6 43.9,837.4" fill="#EDE6D6" stroke="#EDE6D6" stroke-width="6" stroke-linejoin="round"/><polygon points="698.3,786.1 556.5,737.0 547.4,761.3 686.4,817.9" fill="#EDE6D6" /><circle cx="692.3" cy="802.0" r="17" fill="#EDE6D6" /><circle cx="552.0" cy="749.2" r="13" fill="#EDE6D6" /><polygon points="540.5,755.3 607.2,872.7 624.8,863.3 563.4,743.0" fill="#EDE6D6" /><circle cx="552.0" cy="749.2" r="13" fill="#EDE6D6" /><circle cx="616.0" cy="868.0" r="10" fill="#EDE6D6" /><polygon points="616.0,878.0 638.0,877.0 638.0,859.0 616.0,858.0" fill="#EDE6D6" /><circle cx="616.0" cy="868.0" r="10" fill="#EDE6D6" /><circle cx="638.0" cy="868.0" r="9" fill="#EDE6D6" /><polygon points="675.3,784.9 571.6,748.0 566.0,763.0 668.2,803.6" fill="#B3121B" opacity="0.95"/><circle cx="671.8" cy="794.2" r="10" fill="#B3121B" opacity="0.95"/><circle cx="568.8" cy="755.5" r="8" fill="#B3121B" opacity="0.95"/><path d="M 800.1,751.1 Q 800.3,684.3 776.5,637.1" fill="none" stroke="#B3121B" stroke-width="7" stroke-linecap="round" stroke-dasharray="2 16"/><polygon points="765.6,615.7 793.4,637.5 766.7,651.0" fill="#B3121B"/></g><rect x="905" y="914" width="20" height="30" rx="9" fill="#C9A227"/><ellipse cx="902" cy="934" rx="5" ry="9" fill="#C9A227"/><rect x="927" y="914" width="20" height="30" rx="9" fill="#C9A227"/><ellipse cx="950" cy="934" rx="5" ry="9" fill="#C9A227"/><ellipse cx="915" cy="980" rx="12" ry="19" fill="#C9A227"/><ellipse cx="915" cy="1007" rx="9" ry="9" fill="#C9A227"/><ellipse cx="937" cy="980" rx="12" ry="19" fill="#C9A227"/><ellipse cx="937" cy="1007" rx="9" ry="9" fill="#C9A227"/></svg>